<?xml version="1.0" encoding="UTF-8"?>
<svg width="96px" height="96px" enable-background="new 0 0 96 96" version="1.1" viewBox="0 0 96 96" xmlns="http://www.w3.org/2000/svg"><style/><defs><linearGradient id="a" x1="49.026" x2="49.246" y1="92.143" y2="5.4163" gradientUnits="userSpaceOnUse"><stop stop-color="#010308" offset="0"/><stop stop-color="#27394c" offset="1"/></linearGradient></defs><path d="m88 48.522c-0.11326 10.299-0.85563 21.623-7.7482 29.889-6.9742 8.0115-18.18 9.6496-28.21 10.042-10.557 0.17719-21.921 0.01925-31.215-5.6597-8.5982-5.2936-11.667-15.73-12.443-25.227-0.70115-10.793-0.85088-22.115 3.2792-32.306 3.1826-8.2109 11.164-13.477 19.563-15.157 10.326-2.1022 21.081-2.0706 31.471-0.42933 8.5082 1.3747 17.081 5.8452 20.875 13.951 3.8005 7.6735 4.3603 16.479 4.4287 24.896z" enable-background="new    " opacity=".28526"/><path d="m88 47.522c-0.04869 10.468-0.94916 21.964-8.0782 30.26-7.1919 7.748-18.349 9.4281-28.41 9.6802-11.281 0.21719-23.648-0.16281-32.994-7.3299-8.0912-6.8738-10.189-18.089-10.383-28.193-0.43721-11.443-0.00238-23.945 6.9698-33.576 6.6723-8.1246 17.748-10.403 27.756-10.699 10.669-0.48277 21.978-0.039287 31.585 5.1137 7.3819 4.3708 11.517 12.613 12.565 20.921 0.77064 4.564 0.94316 9.2027 0.98964 13.823z" fill="url(#a)"/><path d="m48 7.522c-10.299 0.11307-21.623 0.8571-29.888 7.7503-8.0108 6.9742-9.6504 18.179-10.043 28.209-0.17723 10.557-0.019052 21.922 5.6603 31.215 5.2939 8.5979 15.73 11.666 25.227 12.443 10.794 0.70093 22.116 0.85095 32.308-3.2788 8.2109-3.182 13.476-11.164 15.155-19.563 2.1012-10.326 2.0699-21.08 0.429-31.47-1.3744-8.508-5.8442-17.081-13.95-20.875-7.6739-3.8013-16.48-4.3613-24.898-4.4297zm0 79c-10.066-0.1211-21.137-0.75114-29.247-7.4634-7.8182-6.813-9.3059-17.786-9.6876-27.563-0.14945-10.592-0.081583-22.073 5.9005-31.275 5.5459-8.2788 15.98-10.788 25.334-11.432 10.478-0.50885 21.504-0.66492 31.307 3.6064 7.9694 3.345 12.655 11.449 14.095 19.67 1.786 10.182 1.786 20.731 0 30.913-1.4405 8.2207-6.1256 16.325-14.095 19.67-7.3644 3.3284-15.642 3.8118-23.608 3.8737z" enable-background="new    " fill="#943d26" opacity=".11218"/><path d="m52.32 50.07c7.83e-4 1.4136-0.26625 3.0075-1.4363 3.939-1.2516 0.9595-2.9346 0.97957-4.4346 0.81955-0.58745-0.07341-1.1705-0.18547-1.7404-0.34645v-1.6875c0.56397 0.13664 1.1244 0.3515 1.7007 0.46736 1.0705 0.20426 2.2776 0.30272 3.2631-0.25265 0.88325-0.51772 1.0293-1.6232 0.99522-2.5557v-0.6033c-0.81778 0.6794-1.8175 1.2017-2.9063 1.182-1.246 0.10037-2.5505-0.43833-3.2365-1.5092-0.85044-1.3007-0.94928-2.943-0.7673-4.4471 0.23048-1.6819 1.3721-3.2971 3.0467-3.7818 1.2816-0.40923 2.7115-0.17255 3.8633 0.49658 0.07811-0.15514 0.0088-0.49917 0.26835-0.42188h1.384c0 2.9004 1e-6 5.8008 1e-6 8.7012zm-1.6523-1.582v-5.3525c-1.1396-0.50992-2.523-0.81253-3.7045-0.2645-1.0649 0.51168-1.5273 1.7397-1.5655 2.857-0.03364 1.1028 0.01031 2.367 0.81227 3.2168 0.81909 0.73331 2.0556 0.65595 3.0317 0.32334 0.51153-0.1848 0.99468-0.4487 1.426-0.78006z" fill="#fff" stroke-width="2.5512" aria-label="g"/></svg>
