<?xml version="1.0" encoding="UTF-8"?>
<svg width="96px" height="96px" enable-background="new 0 0 96 96" version="1.1" viewBox="0 0 96 96" xmlns="http://www.w3.org/2000/svg"><style/><defs><linearGradient id="a" x1="49.746" x2="49.587" y1="12.577" y2="82.926" gradientUnits="userSpaceOnUse"><stop stop-color="#253047" offset="0"/><stop stop-color="#0f0f14" offset=".9944"/></linearGradient></defs><path d="m88 48.522c-0.11326 10.299-0.85563 21.623-7.7482 29.889-6.9742 8.0115-18.18 9.6496-28.21 10.042-10.557 0.17719-21.921 0.01925-31.215-5.6597-8.5982-5.2936-11.667-15.73-12.443-25.227-0.70115-10.793-0.85088-22.115 3.2792-32.306 3.1826-8.2109 11.164-13.477 19.563-15.157 10.326-2.1022 21.081-2.0706 31.471-0.42933 8.5082 1.3747 17.081 5.8452 20.875 13.951 3.8005 7.6735 4.3603 16.479 4.4287 24.896z" enable-background="new    " opacity=".28526"/><path d="m88 47.522c-0.08282 10.463-0.91305 21.981-8.0782 30.26-7.0319 7.6579-17.997 9.3228-27.88 9.6709-11.299 0.20524-23.664-0.014-33.148-7.0112-8.1275-6.5314-10.406-17.534-10.715-27.445-0.50451-11.207-0.21415-23.225 5.7821-33.095 5.7157-8.458 16.303-11.488 25.999-12.049 10.163-0.8035 20.68-0.45417 30.383 2.9163 7.5663 2.9119 13.515 9.5184 15.402 17.431 1.8696 6.2539 2.1935 12.838 2.2536 19.322z" fill="url(#a)"/><path d="m48 7.522c-10.299 0.11307-21.623 0.8571-29.888 7.7503-8.0108 6.9742-9.6504 18.179-10.043 28.209-0.17723 10.557-0.019052 21.922 5.6603 31.215 5.2939 8.5979 15.73 11.666 25.227 12.443 10.794 0.70093 22.116 0.85095 32.308-3.2788 8.2109-3.182 13.476-11.164 15.155-19.563 2.1012-10.326 2.0699-21.08 0.429-31.47-1.3744-8.508-5.8442-17.081-13.95-20.875-7.6739-3.8013-16.48-4.3613-24.898-4.4297zm0 79c-10.066-0.1211-21.137-0.75114-29.247-7.4634-7.8182-6.813-9.3059-17.786-9.6876-27.563-0.14945-10.592-0.081583-22.073 5.9005-31.275 5.5459-8.2788 15.98-10.788 25.334-11.432 10.478-0.50885 21.504-0.66492 31.307 3.6064 7.9694 3.345 12.655 11.449 14.095 19.67 1.786 10.182 1.786 20.731 0 30.913-1.4405 8.2207-6.1256 16.325-14.095 19.67-7.3644 3.3284-15.642 3.8118-23.608 3.8737z" enable-background="new    " fill="#334a7c" opacity=".11218"/><path d="m21.805 60.586 10.328-27.734h3.0312l-10.344 27.734zm28.75-21.094h4.25v14.562q0 4.3125-1.7344 6.3438-2.3281 2.75-7.0156 2.75-2.5 0-4.2031-0.625t-2.875-1.8438q-1.1719-1.2031-1.7344-2.9375h4.7031q0.625 0.71875 1.6094 1.0781 0.98438 0.375 2.3281 0.375 1.7188 0 2.7656-0.53125t1.4688-1.375q0.4375-0.84375 0.4375-2.9062-1.125 1.125-2.3594 1.625-1.2344 0.48438-2.7969 0.48438-3.4219 0-5.7812-2.4688t-2.3594-6.25q0-4.0469 2.5-6.5 2.2656-2.2188 5.4062-2.2188 1.4688 0 2.7656 0.54688 1.3125 0.53125 2.625 1.7656zm-4.4219 3.5469q-2.0156 0-3.3281 1.3594-1.3125 1.3438-1.3125 3.3906 0 2.125 1.3438 3.4844t3.375 1.3594q1.9844 0 3.2656-1.3281 1.2969-1.3281 1.2969-3.4844 0-2.125-1.2969-3.4531t-3.3438-1.3281zm13-10.109h4.2344v8.2812q1.25-1.0781 2.5156-1.6094 1.2656-0.54688 2.5625-0.54688 2.5312 0 4.2656 1.75 1.4844 1.5156 1.4844 4.4531v11.234h-4.2031v-7.4531q0-2.9531-0.28125-4t-0.96875-1.5625q-0.67188-0.51562-1.6719-0.51562-1.2969 0-2.2344 0.85938-0.92188 0.85938-1.2812 2.3438-0.1875 0.76562-0.1875 3.5v6.8281h-4.2344z" fill="#fff" stroke-width="2.041" aria-label="/gh"/></svg>
